{
  "accessors": [
    {
      "bufferView": 2,
      "componentType": 5126,
      "count": 3589,
      "max": [
        16.039333343505859,
        1.2078005075454712,
        58.932044982910156
      ],
      "min": [
        -17.139944076538086,
        -9.675938606262207,
        -29.873893737792969
      ],
      "type": "VEC3"
    },
    {
      "bufferView": 2,
      "byteOffset": 43068,
      "componentType": 5126,
      "count": 3589,
      "max": [
        1,
        1,
        1
      ],
      "min": [
        -1,
        -1,
        -1
      ],
      "type": "VEC3"
    },
    {
      "bufferView": 3,
      "componentType": 5126,
      "count": 3589,
      "max": [
        1,
        1,
        1,
        1
      ],
      "min": [
        -1,
        -1,
        -1,
        -1
      ],
      "type": "VEC4"
    },
    {
      "bufferView": 1,
      "componentType": 5126,
      "count": 3589,
      "max": [
        0.99745887517929077,
        0.9975351095199585
      ],
      "min": [
        0.0016745354514569044,
        0.0018443657318130136
      ],
      "type": "VEC2"
    },
    {
      "bufferView": 0,
      "componentType": 5125,
      "count": 9537,
      "max": [
        3588
      ],
      "min": [
        0
      ],
      "type": "SCALAR"
    }
  ],
  "asset": {
    "extras": {
      "author": "Pixel (https://sketchfab.com/stefan.lengyel1)",
      "license": "CC-BY-4.0 (http://creativecommons.org/licenses/by/4.0/)",
      "source": "https://sketchfab.com/3d-models/low-poly-guitar-757b3b5aaf6d4052933edc329c4f5aa5",
      "title": "Low Poly Guitar."
    },
    "generator": "Sketchfab-7.80.0",
    "version": "2.0"
  },
  "bufferViews": [
    {
      "buffer": 0,
      "byteLength": 38148,
      "byteOffset": 0,
      "name": "floatBufferViews",
      "target": 34963
    },
    {
      "buffer": 0,
      "byteLength": 28712,
      "byteOffset": 38148,
      "byteStride": 8,
      "name": "floatBufferViews",
      "target": 34962
    },
    {
      "buffer": 0,
      "byteLength": 86136,
      "byteOffset": 66860,
      "byteStride": 12,
      "name": "floatBufferViews",
      "target": 34962
    },
    {
      "buffer": 0,
      "byteLength": 57424,
      "byteOffset": 152996,
      "byteStride": 16,
      "name": "floatBufferViews",
      "target": 34962
    }
  ],
  "buffers": [
    {
      "byteLength": 210420,
      "uri": "scene.bin"
    }
  ],
  "images": [
    {
      "uri": "textures/Material_295_baseColor.png"
    },
    {
      "uri": "textures/Material_295_metallicRoughness.png"
    },
    {
      "uri": "textures/Material_295_normal.png"
    }
  ],
  "materials": [
    {
      "doubleSided": true,
      "name": "Material_295",
      "normalTexture": {
        "index": 2,
        "scale": 1,
        "texCoord": 0
      },
      "pbrMetallicRoughness": {
        "baseColorFactor": [
          1,
          1,
          1,
          1
        ],
        "baseColorTexture": {
          "index": 0,
          "texCoord": 0
        },
        "metallicFactor": 1,
        "metallicRoughnessTexture": {
          "index": 1,
          "texCoord": 0
        },
        "roughnessFactor": 0.65415396341463417
      }
    }
  ],
  "meshes": [
    {
      "name": "Line001_Material #295_0",
      "primitives": [
        {
          "attributes": {
            "NORMAL": 1,
            "POSITION": 0,
            "TANGENT": 2,
            "TEXCOORD_0": 3
          },
          "indices": 4,
          "material": 0,
          "mode": 4
        }
      ]
    }
  ],
  "nodes": [
    {
      "children": [
        1
      ],
      "name": "RootNode (gltf orientation matrix)",
      "rotation": [
        -0.70710678118654746,
        -0,
        -0,
        0.70710678118654757
      ]
    },
    {
      "children": [
        2
      ],
      "matrix": [
        -0.3254493772983551,
        -0.66901183128356934,
        0.66821098327636719,
        0,
        0.28873038291931152,
        -0.74324363470077515,
        -0.60350948572158813,
        0,
        0.90039849281311035,
        -0.0034789706114679575,
        0.43505221605300903,
        0,
        0.0029899654909968376,
        0.0014424902619794011,
        -0.0015235228929668665,
        1
      ],
      "name": "RootNode (model correction matrix)"
    },
    {
      "children": [
        3
      ],
      "matrix": [
        1,
        0,
        0,
        0,
        0,
        0,
        1,
        0,
        0,
        -1,
        0,
        0,
        0,
        0,
        0,
        1
      ],
      "name": "Gitara.FBX"
    },
    {
      "children": [
        4
      ],
      "name": "RootNode"
    },
    {
      "children": [
        5
      ],
      "matrix": [
        1,
        0,
        0,
        0,
        0,
        2.2204460492503131e-16,
        -1,
        0,
        0,
        1,
        2.2204460492503131e-16,
        0,
        0.0021693110466003418,
        0,
        0,
        1
      ],
      "name": "Line001"
    },
    {
      "children": [
        6
      ],
      "matrix": [
        1,
        0,
        -0,
        0,
        0,
        1,
        0,
        0,
        0,
        0,
        1,
        0,
        0.55030536651611328,
        4.2340688705444336,
        -14.529075622558594,
        1
      ],
      "name": ""
    },
    {
      "mesh": 0,
      "name": "Line001_Material #295_0"
    }
  ],
  "samplers": [
    {
      "magFilter": 9729,
      "minFilter": 9987,
      "wrapS": 10497,
      "wrapT": 10497
    }
  ],
  "scene": 0,
  "scenes": [
    {
      "name": "OSG_Scene",
      "nodes": [
        0
      ]
    }
  ],
  "textures": [
    {
      "sampler": 0,
      "source": 0
    },
    {
      "sampler": 0,
      "source": 1
    },
    {
      "sampler": 0,
      "source": 2
    }
  ]
}

