{
  "accessors": [
    {
      "bufferView": 2,
      "componentType": 5126,
      "count": 65532,
      "max": [
        66.564796447753906,
        91.8948974609375,
        39.227668762207031
      ],
      "min": [
        -48.116661071777344,
        -52.951202392578125,
        -70.538871765136719
      ],
      "type": "VEC3"
    },
    {
      "bufferView": 2,
      "byteOffset": 786384,
      "componentType": 5126,
      "count": 65532,
      "max": [
        1,
        1,
        0.99998414516448975
      ],
      "min": [
        -0.99986588954925537,
        -0.99974870681762695,
        -0.75656998157501221
      ],
      "type": "VEC3"
    },
    {
      "bufferView": 1,
      "componentType": 5126,
      "count": 65532,
      "max": [
        0.62797802686691284,
        0.97842502593994141
      ],
      "min": [
        0.010625000111758709,
        0.53115200996398926
      ],
      "type": "VEC2"
    },
    {
      "bufferView": 0,
      "componentType": 5125,
      "count": 318858,
      "max": [
        65531
      ],
      "min": [
        0
      ],
      "type": "SCALAR"
    },
    {
      "bufferView": 2,
      "byteOffset": 1572768,
      "componentType": 5126,
      "count": 65532,
      "max": [
        63.306182861328125,
        91.831886291503906,
        38.570549011230469
      ],
      "min": [
        -53.121597290039062,
        -52.987213134765625,
        -54.335838317871094
      ],
      "type": "VEC3"
    },
    {
      "bufferView": 2,
      "byteOffset": 2359152,
      "componentType": 5126,
      "count": 65532,
      "max": [
        1,
        0.99993783235549927,
        1
      ],
      "min": [
        -0.99978530406951904,
        -0.99974870681762695,
        -0.85219329595565796
      ],
      "type": "VEC3"
    },
    {
      "bufferView": 1,
      "byteOffset": 524256,
      "componentType": 5126,
      "count": 65532,
      "max": [
        0.62540799379348755,
        0.98937499523162842
      ],
      "min": [
        0.012563999742269516,
        0.58567297458648682
      ],
      "type": "VEC2"
    },
    {
      "bufferView": 0,
      "byteOffset": 1275432,
      "componentType": 5125,
      "count": 326976,
      "max": [
        65531
      ],
      "min": [
        0
      ],
      "type": "SCALAR"
    },
    {
      "bufferView": 2,
      "byteOffset": 3145536,
      "componentType": 5126,
      "count": 65532,
      "max": [
        66.663818359375,
        90.589653015136719,
        28.866722106933594
      ],
      "min": [
        -53.121597290039062,
        -52.951202392578125,
        -67.739349365234375
      ],
      "type": "VEC3"
    },
    {
      "bufferView": 2,
      "byteOffset": 3931920,
      "componentType": 5126,
      "count": 65532,
      "max": [
        1,
        0.99975347518920898,
        0.99999386072158813
      ],
      "min": [
        -0.99999392032623291,
        -0.99704033136367798,
        -0.72127711772918701
      ],
      "type": "VEC3"
    },
    {
      "bufferView": 1,
      "byteOffset": 1048512,
      "componentType": 5126,
      "count": 65532,
      "max": [
        0.62519299983978271,
        0.98851501941680908
      ],
      "min": [
        0.012436999939382076,
        0.53867298364639282
      ],
      "type": "VEC2"
    },
    {
      "bufferView": 0,
      "byteOffset": 2583336,
      "componentType": 5125,
      "count": 289011,
      "max": [
        65531
      ],
      "min": [
        0
      ],
      "type": "SCALAR"
    },
    {
      "bufferView": 2,
      "byteOffset": 4718304,
      "componentType": 5126,
      "count": 65532,
      "max": [
        66.60980224609375,
        91.8948974609375,
        39.245658874511719
      ],
      "min": [
        -51.6273193359375,
        -53.158248901367188,
        -101.33363342285156
      ],
      "type": "VEC3"
    },
    {
      "bufferView": 2,
      "byteOffset": 5504688,
      "componentType": 5126,
      "count": 65532,
      "max": [
        1,
        0.99966722726821899,
        0.99983459711074829
      ],
      "min": [
        -1,
        -0.99704033136367798,
        -0.9995887279510498
      ],
      "type": "VEC3"
    },
    {
      "bufferView": 1,
      "byteOffset": 1572768,
      "componentType": 5126,
      "count": 65532,
      "max": [
        0.93685102462768555,
        0.98937499523162842
      ],
      "min": [
        0.011859999969601631,
        0.5323060154914856
      ],
      "type": "VEC2"
    },
    {
      "bufferView": 0,
      "byteOffset": 3739380,
      "componentType": 5125,
      "count": 277218,
      "max": [
        65531
      ],
      "min": [
        0
      ],
      "type": "SCALAR"
    },
    {
      "bufferView": 2,
      "byteOffset": 6291072,
      "componentType": 5126,
      "count": 65533,
      "max": [
        65.277557373046875,
        91.741867065429688,
        -43.533817291259766
      ],
      "min": [
        -51.519298553466797,
        -3.802001953125,
        -101.35163879394531
      ],
      "type": "VEC3"
    },
    {
      "bufferView": 2,
      "byteOffset": 7077468,
      "componentType": 5126,
      "count": 65533,
      "max": [
        0.93418574333190918,
        0.99993783235549927,
        0.84537202119827271
      ],
      "min": [
        -1,
        -1,
        -0.99999487400054932
      ],
      "type": "VEC3"
    },
    {
      "bufferView": 1,
      "byteOffset": 2097024,
      "componentType": 5126,
      "count": 65533,
      "max": [
        0.94020700454711914,
        0.98903197050094604
      ],
      "min": [
        0.63749200105667114,
        0.62577402591705322
      ],
      "type": "VEC2"
    },
    {
      "bufferView": 0,
      "byteOffset": 4848252,
      "componentType": 5125,
      "count": 337251,
      "max": [
        65532
      ],
      "min": [
        0
      ],
      "type": "SCALAR"
    },
    {
      "bufferView": 2,
      "byteOffset": 7863864,
      "componentType": 5126,
      "count": 65532,
      "max": [
        64.080337524414062,
        91.768875122070312,
        -4.4575119018554688
      ],
      "min": [
        -51.6273193359375,
        -55.579696655273438,
        -101.68470001220703
      ],
      "type": "VEC3"
    },
    {
      "bufferView": 2,
      "byteOffset": 8650248,
      "componentType": 5126,
      "count": 65532,
      "max": [
        0.99989736080169678,
        0.99971193075180054,
        0.99951624870300293
      ],
      "min": [
        -1,
        -1,
        -1
      ],
      "type": "VEC3"
    },
    {
      "bufferView": 1,
      "byteOffset": 2621288,
      "componentType": 5126,
      "count": 65532,
      "max": [
        0.93955600261688232,
        0.98570597171783447
      ],
      "min": [
        0.11687400192022324,
        0.35034498572349548
      ],
      "type": "VEC2"
    },
    {
      "bufferView": 0,
      "byteOffset": 6197256,
      "componentType": 5125,
      "count": 276339,
      "max": [
        65531
      ],
      "min": [
        0
      ],
      "type": "SCALAR"
    },
    {
      "bufferView": 2,
      "byteOffset": 9436632,
      "componentType": 5126,
      "count": 65532,
      "max": [
        51.919052124023438,
        8.3592681884765625,
        0.51142901182174683
      ],
      "min": [
        -52.716522216796875,
        -55.561691284179688,
        -101.57668304443359
      ],
      "type": "VEC3"
    },
    {
      "bufferView": 2,
      "byteOffset": 10223016,
      "componentType": 5126,
      "count": 65532,
      "max": [
        1,
        0.98019117116928101,
        0.99963784217834473
      ],
      "min": [
        -1,
        -1,
        -1
      ],
      "type": "VEC3"
    },
    {
      "bufferView": 1,
      "byteOffset": 3145544,
      "componentType": 5126,
      "count": 65532,
      "max": [
        0.39692199230194092,
        0.70250397920608521
      ],
      "min": [
        0.1183909997344017,
        0.32078200578689575
      ],
      "type": "VEC2"
    },
    {
      "bufferView": 0,
      "byteOffset": 7302612,
      "componentType": 5125,
      "count": 340929,
      "max": [
        65531
      ],
      "min": [
        0
      ],
      "type": "SCALAR"
    },
    {
      "bufferView": 2,
      "byteOffset": 11009400,
      "componentType": 5126,
      "count": 65532,
      "max": [
        66.195724487304688,
        79.841644287109375,
        38.588539123535156
      ],
      "min": [
        -51.636322021484375,
        -53.455291748046875,
        -101.54067230224609
      ],
      "type": "VEC3"
    },
    {
      "bufferView": 2,
      "byteOffset": 11795784,
      "componentType": 5126,
      "count": 65532,
      "max": [
        1,
        1,
        0.99999994039535522
      ],
      "min": [
        -1,
        -1,
        -1
      ],
      "type": "VEC3"
    },
    {
      "bufferView": 1,
      "byteOffset": 3669800,
      "componentType": 5126,
      "count": 65532,
      "max": [
        0.70802402496337891,
        0.69436502456665039
      ],
      "min": [
        0.12128499895334244,
        0.19078700244426727
      ],
      "type": "VEC2"
    },
    {
      "bufferView": 0,
      "byteOffset": 8666328,
      "componentType": 5125,
      "count": 321996,
      "max": [
        65531
      ],
      "min": [
        0
      ],
      "type": "SCALAR"
    },
    {
      "bufferView": 2,
      "byteOffset": 12582168,
      "componentType": 5126,
      "count": 65532,
      "max": [
        66.483779907226562,
        78.905464172363281,
        39.263679504394531
      ],
      "min": [
        -53.00457763671875,
        -31.662223815917969,
        -92.9710693359375
      ],
      "type": "VEC3"
    },
    {
      "bufferView": 2,
      "byteOffset": 13368552,
      "componentType": 5126,
      "count": 65532,
      "max": [
        1,
        0.99954110383987427,
        1
      ],
      "min": [
        -1,
        -0.99816423654556274,
        -1
      ],
      "type": "VEC3"
    },
    {
      "bufferView": 1,
      "byteOffset": 4194056,
      "componentType": 5126,
      "count": 65532,
      "max": [
        0.7067980170249939,
        0.54177701473236084
      ],
      "min": [
        0.16999800503253937,
        0.11028099805116653
      ],
      "type": "VEC2"
    },
    {
      "bufferView": 0,
      "byteOffset": 9954312,
      "componentType": 5125,
      "count": 321207,
      "max": [
        65531
      ],
      "min": [
        0
      ],
      "type": "SCALAR"
    },
    {
      "bufferView": 2,
      "byteOffset": 14154936,
      "componentType": 5126,
      "count": 65532,
      "max": [
        58.085212707519531,
        61.9822998046875,
        23.060638427734375
      ],
      "min": [
        -53.679702758789062,
        -53.860366821289062,
        -85.940757751464844
      ],
      "type": "VEC3"
    },
    {
      "bufferView": 2,
      "byteOffset": 14941320,
      "componentType": 5126,
      "count": 65532,
      "max": [
        1,
        1,
        1
      ],
      "min": [
        -1,
        -1,
        -0.99999994039535522
      ],
      "type": "VEC3"
    },
    {
      "bufferView": 1,
      "byteOffset": 4718312,
      "componentType": 5126,
      "count": 65532,
      "max": [
        0.87995201349258423,
        0.66000401973724365
      ],
      "min": [
        0.021250000223517418,
        0.039983998984098434
      ],
      "type": "VEC2"
    },
    {
      "bufferView": 0,
      "byteOffset": 11239140,
      "componentType": 5125,
      "count": 354696,
      "max": [
        65531
      ],
      "min": [
        0
      ],
      "type": "SCALAR"
    },
    {
      "bufferView": 2,
      "byteOffset": 15727704,
      "componentType": 5126,
      "count": 65532,
      "max": [
        58.283241271972656,
        76.060935974121094,
        33.088523864746094
      ],
      "min": [
        -53.598686218261719,
        -38.75555419921875,
        -96.337699890136719
      ],
      "type": "VEC3"
    },
    {
      "bufferView": 2,
      "byteOffset": 16514088,
      "componentType": 5126,
      "count": 65532,
      "max": [
        1,
        1,
        1
      ],
      "min": [
        -1,
        -1,
        -1
      ],
      "type": "VEC3"
    },
    {
      "bufferView": 1,
      "byteOffset": 5242568,
      "componentType": 5126,
      "count": 65532,
      "max": [
        0.98809599876403809,
        0.98937499523162842
      ],
      "min": [
        0.021250000223517418,
        0.0045710001140832901
      ],
      "type": "VEC2"
    },
    {
      "bufferView": 0,
      "byteOffset": 12657924,
      "componentType": 5125,
      "count": 363936,
      "max": [
        65531
      ],
      "min": [
        0
      ],
      "type": "SCALAR"
    },
    {
      "bufferView": 2,
      "byteOffset": 17300472,
      "componentType": 5126,
      "count": 21466,
      "max": [
        60.2816162109375,
        68.652549743652344,
        23.204666137695312
      ],
      "min": [
        -52.968570709228516,
        -38.75555419921875,
        -74.886688232421875
      ],
      "type": "VEC3"
    },
    {
      "bufferView": 2,
      "byteOffset": 17558064,
      "componentType": 5126,
      "count": 21466,
      "max": [
        1,
        1,
        1
      ],
      "min": [
        -1,
        -1,
        -1
      ],
      "type": "VEC3"
    },
    {
      "bufferView": 1,
      "byteOffset": 5766824,
      "componentType": 5126,
      "count": 21466,
      "max": [
        0.97767597436904907,
        0.86187702417373657
      ],
      "min": [
        0.010625000111758709,
        0.002119000069797039
      ],
      "type": "VEC2"
    },
    {
      "bufferView": 0,
      "byteOffset": 14113668,
      "componentType": 5125,
      "count": 71583,
      "max": [
        21465
      ],
      "min": [
        0
      ],
      "type": "SCALAR"
    }
  ],
  "asset": {
    "extras": {
      "author": "Alicia Walsh (https://sketchfab.com/awalsh)",
      "license": "CC-BY-4.0 (http://creativecommons.org/licenses/by/4.0/)",
      "source": "https://sketchfab.com/3d-models/isolation-creation-ii-toilet-paper-e831aa5fdaca45e2b63352714833dc55",
      "title": "Isolation Creation II: Toilet Paper"
    },
    "generator": "Sketchfab-8.0.0",
    "version": "2.0"
  },
  "bufferViews": [
    {
      "buffer": 0,
      "byteLength": 14400000,
      "byteOffset": 0,
      "name": "floatBufferViews",
      "target": 34963
    },
    {
      "buffer": 0,
      "byteLength": 5938552,
      "byteOffset": 14400000,
      "byteStride": 8,
      "name": "floatBufferViews",
      "target": 34962
    },
    {
      "buffer": 0,
      "byteLength": 17815656,
      "byteOffset": 20338552,
      "byteStride": 12,
      "name": "floatBufferViews",
      "target": 34962
    }
  ],
  "buffers": [
    {
      "byteLength": 38154208,
      "uri": "scene.bin"
    }
  ],
  "images": [
    {
      "uri": "textures/material_0_baseColor.jpeg"
    }
  ],
  "materials": [
    {
      "doubleSided": true,
      "emissiveFactor": [
        0,
        0,
        0
      ],
      "name": "material_0",
      "pbrMetallicRoughness": {
        "baseColorFactor": [
          1,
          1,
          1,
          1
        ],
        "baseColorTexture": {
          "index": 0,
          "texCoord": 0
        },
        "metallicFactor": 0,
        "roughnessFactor": 0.43765867480965093
      }
    }
  ],
  "meshes": [
    {
      "primitives": [
        {
          "attributes": {
            "NORMAL": 1,
            "POSITION": 0,
            "TEXCOORD_0": 2
          },
          "indices": 3,
          "material": 0,
          "mode": 4
        }
      ]
    },
    {
      "primitives": [
        {
          "attributes": {
            "NORMAL": 5,
            "POSITION": 4,
            "TEXCOORD_0": 6
          },
          "indices": 7,
          "material": 0,
          "mode": 4
        }
      ]
    },
    {
      "primitives": [
        {
          "attributes": {
            "NORMAL": 9,
            "POSITION": 8,
            "TEXCOORD_0": 10
          },
          "indices": 11,
          "material": 0,
          "mode": 4
        }
      ]
    },
    {
      "primitives": [
        {
          "attributes": {
            "NORMAL": 13,
            "POSITION": 12,
            "TEXCOORD_0": 14
          },
          "indices": 15,
          "material": 0,
          "mode": 4
        }
      ]
    },
    {
      "primitives": [
        {
          "attributes": {
            "NORMAL": 17,
            "POSITION": 16,
            "TEXCOORD_0": 18
          },
          "indices": 19,
          "material": 0,
          "mode": 4
        }
      ]
    },
    {
      "primitives": [
        {
          "attributes": {
            "NORMAL": 21,
            "POSITION": 20,
            "TEXCOORD_0": 22
          },
          "indices": 23,
          "material": 0,
          "mode": 4
        }
      ]
    },
    {
      "primitives": [
        {
          "attributes": {
            "NORMAL": 25,
            "POSITION": 24,
            "TEXCOORD_0": 26
          },
          "indices": 27,
          "material": 0,
          "mode": 4
        }
      ]
    },
    {
      "primitives": [
        {
          "attributes": {
            "NORMAL": 29,
            "POSITION": 28,
            "TEXCOORD_0": 30
          },
          "indices": 31,
          "material": 0,
          "mode": 4
        }
      ]
    },
    {
      "primitives": [
        {
          "attributes": {
            "NORMAL": 33,
            "POSITION": 32,
            "TEXCOORD_0": 34
          },
          "indices": 35,
          "material": 0,
          "mode": 4
        }
      ]
    },
    {
      "primitives": [
        {
          "attributes": {
            "NORMAL": 37,
            "POSITION": 36,
            "TEXCOORD_0": 38
          },
          "indices": 39,
          "material": 0,
          "mode": 4
        }
      ]
    },
    {
      "primitives": [
        {
          "attributes": {
            "NORMAL": 41,
            "POSITION": 40,
            "TEXCOORD_0": 42
          },
          "indices": 43,
          "material": 0,
          "mode": 4
        }
      ]
    },
    {
      "primitives": [
        {
          "attributes": {
            "NORMAL": 45,
            "POSITION": 44,
            "TEXCOORD_0": 46
          },
          "indices": 47,
          "material": 0,
          "mode": 4
        }
      ]
    }
  ],
  "nodes": [
    {
      "children": [
        1
      ],
      "name": "RootNode (gltf orientation matrix)",
      "rotation": [
        -0.70710678118654746,
        -0,
        -0,
        0.70710678118654757
      ]
    },
    {
      "children": [
        2
      ],
      "matrix": [
        1,
        0,
        0,
        0,
        0,
        0.93760228157043457,
        -0.34770962595939636,
        0,
        0,
        0.34770962595939636,
        0.93760228157043457,
        0,
        0,
        11.985310554504395,
        4.3660831451416016,
        1
      ],
      "name": "RootNode (model correction matrix)"
    },
    {
      "children": [
        3,
        4,
        5,
        6,
        7,
        8,
        9,
        10,
        11,
        12,
        13,
        14
      ],
      "name": "quar2 .obj.cleaner.materialmerger.gles"
    },
    {
      "mesh": 0,
      "name": ""
    },
    {
      "mesh": 1,
      "name": ""
    },
    {
      "mesh": 2,
      "name": ""
    },
    {
      "mesh": 3,
      "name": ""
    },
    {
      "mesh": 4,
      "name": ""
    },
    {
      "mesh": 5,
      "name": ""
    },
    {
      "mesh": 6,
      "name": ""
    },
    {
      "mesh": 7,
      "name": ""
    },
    {
      "mesh": 8,
      "name": ""
    },
    {
      "mesh": 9,
      "name": ""
    },
    {
      "mesh": 10,
      "name": ""
    },
    {
      "mesh": 11,
      "name": ""
    }
  ],
  "samplers": [
    {
      "magFilter": 9729,
      "minFilter": 9987,
      "wrapS": 10497,
      "wrapT": 10497
    }
  ],
  "scene": 0,
  "scenes": [
    {
      "name": "OSG_Scene",
      "nodes": [
        0
      ]
    }
  ],
  "textures": [
    {
      "sampler": 0,
      "source": 0
    }
  ]
}

