{
  "accessors": [
    {
      "bufferView": 2,
      "componentType": 5126,
      "count": 2357,
      "max": [
        6.3285861015319824,
        1.7695038318634033,
        9.7494983673095703
      ],
      "min": [
        -6.3300571441650391,
        -1.2792434692382812,
        -8.3309926986694336
      ],
      "type": "VEC3"
    },
    {
      "bufferView": 2,
      "byteOffset": 28284,
      "componentType": 5126,
      "count": 2357,
      "max": [
        0.9972541332244873,
        1,
        0.99933391809463501
      ],
      "min": [
        -0.99732452630996704,
        -1,
        -0.999828040599823
      ],
      "type": "VEC3"
    },
    {
      "bufferView": 3,
      "componentType": 5126,
      "count": 2357,
      "max": [
        1,
        0.99961644411087036,
        0.99990910291671753,
        1
      ],
      "min": [
        -1,
        -0.9976469874382019,
        -0.99999916553497314,
        -1
      ],
      "type": "VEC4"
    },
    {
      "bufferView": 1,
      "componentType": 5126,
      "count": 2357,
      "max": [
        1.9978078603744507,
        0.9952734112739563
      ],
      "min": [
        0.0084407255053520203,
        0.0055890651419758797
      ],
      "type": "VEC2"
    },
    {
      "bufferView": 1,
      "byteOffset": 18856,
      "componentType": 5126,
      "count": 2357,
      "max": [
        1.9978078603744507,
        0.9952734112739563
      ],
      "min": [
        0.0084407255053520203,
        0.0055890651419758797
      ],
      "type": "VEC2"
    },
    {
      "bufferView": 0,
      "componentType": 5125,
      "count": 11208,
      "max": [
        2356
      ],
      "min": [
        0
      ],
      "type": "SCALAR"
    }
  ],
  "asset": {
    "extras": {
      "author": "d333p (https://sketchfab.com/d333p)",
      "license": "CC-BY-4.0 (http://creativecommons.org/licenses/by/4.0/)",
      "source": "https://sketchfab.com/3d-models/game-ready-character-e321e805190748c6a94dbe11b97e3023",
      "title": "Game ready character"
    },
    "generator": "Sketchfab-9.31.1",
    "version": "2.0"
  },
  "bufferViews": [
    {
      "buffer": 0,
      "byteLength": 44832,
      "byteOffset": 0,
      "name": "floatBufferViews",
      "target": 34963
    },
    {
      "buffer": 0,
      "byteLength": 37712,
      "byteOffset": 44832,
      "byteStride": 8,
      "name": "floatBufferViews",
      "target": 34962
    },
    {
      "buffer": 0,
      "byteLength": 56568,
      "byteOffset": 82544,
      "byteStride": 12,
      "name": "floatBufferViews",
      "target": 34962
    },
    {
      "buffer": 0,
      "byteLength": 37712,
      "byteOffset": 139112,
      "byteStride": 16,
      "name": "floatBufferViews",
      "target": 34962
    }
  ],
  "buffers": [
    {
      "byteLength": 176824,
      "uri": "scene.bin"
    }
  ],
  "images": [
    {
      "uri": "textures/Rupert_main.001_baseColor.jpeg"
    },
    {
      "uri": "textures/Rupert_main.001_normal.jpeg"
    }
  ],
  "materials": [
    {
      "doubleSided": true,
      "emissiveFactor": [
        0,
        0,
        0
      ],
      "name": "Rupert_main.001",
      "normalTexture": {
        "index": 1,
        "scale": 1,
        "texCoord": 0
      },
      "pbrMetallicRoughness": {
        "baseColorFactor": [
          1,
          1,
          1,
          1
        ],
        "baseColorTexture": {
          "index": 0,
          "texCoord": 0
        },
        "metallicFactor": 0,
        "roughnessFactor": 1
      }
    }
  ],
  "meshes": [
    {
      "name": "Rupert.001_Rupert_main.001_0",
      "primitives": [
        {
          "attributes": {
            "NORMAL": 1,
            "POSITION": 0,
            "TANGENT": 2,
            "TEXCOORD_0": 3,
            "TEXCOORD_1": 4
          },
          "indices": 5,
          "material": 0,
          "mode": 4
        }
      ]
    }
  ],
  "nodes": [
    {
      "children": [
        1
      ],
      "name": "RootNode (gltf orientation matrix)",
      "rotation": [
        -0.70710678118654746,
        -0,
        -0,
        0.70710678118654757
      ]
    },
    {
      "children": [
        2
      ],
      "name": "RootNode (model correction matrix)"
    },
    {
      "children": [
        3
      ],
      "matrix": [
        1,
        0,
        0,
        0,
        0,
        0,
        1,
        0,
        0,
        -1,
        0,
        0,
        0,
        0,
        0,
        1
      ],
      "name": "g_r_character.fbx"
    },
    {
      "children": [
        4
      ],
      "name": "RootNode"
    },
    {
      "children": [
        5
      ],
      "matrix": [
        100,
        0,
        0,
        0,
        0,
        -1.6292067939183141e-05,
        -99.999999999998678,
        0,
        0,
        99.999999999998678,
        -1.6292067939183141e-05,
        0,
        0,
        0,
        0,
        1
      ],
      "name": "Rupert.001"
    },
    {
      "mesh": 0,
      "name": "Rupert.001_Rupert_main.001_0"
    }
  ],
  "samplers": [
    {
      "magFilter": 9729,
      "minFilter": 9987,
      "wrapS": 10497,
      "wrapT": 10497
    }
  ],
  "scene": 0,
  "scenes": [
    {
      "name": "OSG_Scene",
      "nodes": [
        0
      ]
    }
  ],
  "textures": [
    {
      "sampler": 0,
      "source": 0
    },
    {
      "sampler": 0,
      "source": 1
    }
  ]
}

