# meubleChevet.obj 3D model
#
# Created by Gael Bettinelli
#
# This file is distributed under Free Art License, see http://artlibre.org/licence/lal/en for more informations
# and under CC-BY Creative Commons Attribution 3.0 Unported license, see http://creativecommons.org/licenses/by/3.0/
# at your choice
# 
mtllib meubleChevet.mtl
g Cube_15_1
usemtl bclair
v 18.65 22.73824 14.5
v -18.65 22.73824 14.5
v 0.0 22.73824 0.0
v 18.65 22.73824 -14.5
v -18.65 22.73824 -14.5
v 18.65 23.35824 0.0
v 18.65 23.97824 -14.5
v 18.65 23.97824 14.5
v 0.0 23.35824 14.5
v -18.65 23.97824 14.5
v -18.65 23.35824 0.0
v -18.65 23.97824 -14.5
v 0.0 23.97824 0.0
v 0.0 23.35824 -14.5
vt 1.0 0.0 0
vt 0.0 0.0 0
vt 0.5 0.5 0
vt 1.0 1.0 0
vt 0.0 1.0 0
vt 1.0 0.5 0
vt 0.5 0.0 0
vt 0.0 0.5 0
vt 0.5 1.0 0
vn 0.0 -1.0 0.0
vn 1.0 0.0 0.0
vn 0.0 0.0 1.0
vn -1.0 0.0 0.0
vn 0.0 1.0 0.0
vn 0.0 0.0 -1.0
f 1/1/1 2/2/1 3/3/1
f 4/4/1 1/1/1 3/3/1
f 5/5/1 4/4/1 3/3/1
f 2/2/1 5/5/1 3/3/1
f 1/1/2 4/4/2 6/6/2
f 4/4/2 7/4/2 6/6/2
f 7/4/2 8/1/2 6/6/2
f 8/1/2 1/1/2 6/6/2
f 2/2/3 1/1/3 9/7/3
f 1/1/3 8/1/3 9/7/3
f 8/1/3 10/2/3 9/7/3
f 10/2/3 2/2/3 9/7/3
f 5/5/4 2/2/4 11/8/4
f 2/2/4 10/2/4 11/8/4
f 10/2/4 12/5/4 11/8/4
f 12/5/4 5/5/4 11/8/4
f 10/2/5 8/1/5 13/3/5
f 8/1/5 7/4/5 13/3/5
f 7/4/5 12/5/5 13/3/5
f 12/5/5 10/2/5 13/3/5
f 4/4/6 5/5/6 14/9/6
f 5/5/6 12/5/6 14/9/6
f 12/5/6 7/4/6 14/9/6
f 7/4/6 4/4/6 14/9/6
g Cube_15_1_2
usemtl bclair
v 18.65 -3.33882 14.5
v -18.65 -3.33882 14.5
v 0.0 -3.33882 0.0
v 18.65 -3.33882 -14.5
v -18.65 -3.33882 -14.5
v 18.65 -2.71882 0.0
v 18.65 -2.09882 -14.5
v 18.65 -2.09882 14.5
v 0.0 -2.71882 14.5
v -18.65 -2.09882 14.5
v -18.65 -2.71882 0.0
v -18.65 -2.09882 -14.5
v 0.0 -2.09882 0.0
v 0.0 -2.71882 -14.5
f 15/1/1 16/2/1 17/3/1
f 18/4/1 15/1/1 17/3/1
f 19/5/1 18/4/1 17/3/1
f 16/2/1 19/5/1 17/3/1
f 15/1/2 18/4/2 20/6/2
f 18/4/2 21/4/2 20/6/2
f 21/4/2 22/1/2 20/6/2
f 22/1/2 15/1/2 20/6/2
f 16/2/3 15/1/3 23/7/3
f 15/1/3 22/1/3 23/7/3
f 22/1/3 24/2/3 23/7/3
f 24/2/3 16/2/3 23/7/3
f 19/5/4 16/2/4 25/8/4
f 16/2/4 24/2/4 25/8/4
f 24/2/4 26/5/4 25/8/4
f 26/5/4 19/5/4 25/8/4
f 24/2/5 22/1/5 27/3/5
f 22/1/5 21/4/5 27/3/5
f 21/4/5 26/5/5 27/3/5
f 26/5/5 24/2/5 27/3/5
f 18/4/6 19/5/6 28/9/6
f 19/5/6 26/5/6 28/9/6
f 26/5/6 21/4/6 28/9/6
f 21/4/6 18/4/6 28/9/6
g Cube_15_2_3
usemtl bclair
v 18.65 -29.48111 14.5
v -18.65 -29.48111 14.5
v 0.0 -29.48111 0.0
v 18.65 -29.48111 -14.5
v -18.65 -29.48111 -14.5
v 18.65 -28.86111 0.0
v 18.65 -28.24111 -14.5
v 18.65 -28.24111 14.5
v 0.0 -28.86111 14.5
v -18.65 -28.24111 14.5
v -18.65 -28.86111 0.0
v -18.65 -28.24111 -14.5
v 0.0 -28.24111 0.0
v 0.0 -28.86111 -14.5
f 29/1/1 30/2/1 31/3/1
f 32/4/1 29/1/1 31/3/1
f 33/5/1 32/4/1 31/3/1
f 30/2/1 33/5/1 31/3/1
f 29/1/2 32/4/2 34/6/2
f 32/4/2 35/4/2 34/6/2
f 35/4/2 36/1/2 34/6/2
f 36/1/2 29/1/2 34/6/2
f 30/2/3 29/1/3 37/7/3
f 29/1/3 36/1/3 37/7/3
f 36/1/3 38/2/3 37/7/3
f 38/2/3 30/2/3 37/7/3
f 33/5/4 30/2/4 39/8/4
f 30/2/4 38/2/4 39/8/4
f 38/2/4 40/5/4 39/8/4
f 40/5/4 33/5/4 39/8/4
f 38/2/5 36/1/5 41/3/5
f 36/1/5 35/4/5 41/3/5
f 35/4/5 40/5/5 41/3/5
f 40/5/5 38/2/5 41/3/5
f 32/4/6 33/5/6 42/9/6
f 33/5/6 40/5/6 42/9/6
f 40/5/6 35/4/6 42/9/6
f 35/4/6 32/4/6 42/9/6
g Cube_16_4
usemtl bclair
v -18.67466 -29.71882 14.5
v -19.91466 -29.71882 14.5
v -19.29466 -29.71882 0.0
v -18.67466 -29.71882 -14.5
v -19.91466 -29.71882 -14.5
v -18.67466 -2.71882 0.0
v -18.67466 24.28118 -14.5
v -18.67466 24.28118 14.5
v -19.29466 -2.71882 14.5
v -19.91466 24.28118 14.5
v -19.91466 -2.71882 0.0
v -19.91466 24.28118 -14.5
v -19.29466 24.28118 0.0
v -19.29466 -2.71882 -14.5
f 43/1/1 44/1/1 45/7/1
f 46/2/1 43/1/1 45/7/1
f 47/2/1 46/2/1 45/7/1
f 44/1/1 47/2/1 45/7/1
f 43/1/2 46/2/2 48/3/2
f 46/2/2 49/5/2 48/3/2
f 49/5/2 50/4/2 48/3/2
f 50/4/2 43/1/2 48/3/2
f 44/1/3 43/1/3 51/6/3
f 43/1/3 50/4/3 51/6/3
f 50/4/3 52/4/3 51/6/3
f 52/4/3 44/1/3 51/6/3
f 47/2/4 44/1/4 53/3/4
f 44/1/4 52/4/4 53/3/4
f 52/4/4 54/5/4 53/3/4
f 54/5/4 47/2/4 53/3/4
f 52/4/5 50/4/5 55/9/5
f 50/4/5 49/5/5 55/9/5
f 49/5/5 54/5/5 55/9/5
f 54/5/5 52/4/5 55/9/5
f 46/2/6 47/2/6 56/8/6
f 47/2/6 54/5/6 56/8/6
f 54/5/6 49/5/6 56/8/6
f 49/5/6 46/2/6 56/8/6
g Cube_16_1_5
usemtl bclair
v 19.95312 -29.71882 14.5
v 18.71312 -29.71882 14.5
v 19.33312 -29.71882 0.0
v 19.95312 -29.71882 -14.5
v 18.71312 -29.71882 -14.5
v 19.95312 -2.71882 0.0
v 19.95312 24.28118 -14.5
v 19.95312 24.28118 14.5
v 19.33312 -2.71882 14.5
v 18.71312 24.28118 14.5
v 18.71312 -2.71882 0.0
v 18.71312 24.28118 -14.5
v 19.33312 24.28118 0.0
v 19.33312 -2.71882 -14.5
f 57/1/1 58/1/1 59/7/1
f 60/2/1 57/1/1 59/7/1
f 61/2/1 60/2/1 59/7/1
f 58/1/1 61/2/1 59/7/1
f 57/1/2 60/2/2 62/3/2
f 60/2/2 63/5/2 62/3/2
f 63/5/2 64/4/2 62/3/2
f 64/4/2 57/1/2 62/3/2
f 58/1/3 57/1/3 65/6/3
f 57/1/3 64/4/3 65/6/3
f 64/4/3 66/4/3 65/6/3
f 66/4/3 58/1/3 65/6/3
f 61/2/4 58/1/4 67/3/4
f 58/1/4 66/4/4 67/3/4
f 66/4/4 68/5/4 67/3/4
f 68/5/4 61/2/4 67/3/4
f 66/4/5 64/4/5 69/9/5
f 64/4/5 63/5/5 69/9/5
f 63/5/5 68/5/5 69/9/5
f 68/5/5 66/4/5 69/9/5
f 60/2/6 61/2/6 70/8/6
f 61/2/6 68/5/6 70/8/6
f 68/5/6 63/5/6 70/8/6
f 63/5/6 60/2/6 70/8/6
g Cube_17_6
usemtl bclair
v 18.7 -28.63168 -13.07701
v -18.7 -28.63168 -13.07701
v 0.0 -28.63168 -13.27701
v 18.7 -28.63168 -13.47701
v -18.7 -28.63168 -13.47701
v 18.7 -2.63168 -13.27701
v 18.7 23.36832 -13.47701
v 18.7 23.36832 -13.07701
v 0.0 -2.63168 -13.07701
v -18.7 23.36832 -13.07701
v -18.7 -2.63168 -13.27701
v -18.7 23.36832 -13.47701
v 0.0 23.36832 -13.27701
v 0.0 -2.63168 -13.47701
f 71/1/1 72/2/1 73/7/1
f 74/1/1 71/1/1 73/7/1
f 75/2/1 74/1/1 73/7/1
f 72/2/1 75/2/1 73/7/1
f 71/1/2 74/1/2 76/6/2
f 74/1/2 77/4/2 76/6/2
f 77/4/2 78/4/2 76/6/2
f 78/4/2 71/1/2 76/6/2
f 72/2/3 71/1/3 79/3/3
f 71/1/3 78/4/3 79/3/3
f 78/4/3 80/5/3 79/3/3
f 80/5/3 72/2/3 79/3/3
f 75/2/4 72/2/4 81/8/4
f 72/2/4 80/5/4 81/8/4
f 80/5/4 82/5/4 81/8/4
f 82/5/4 75/2/4 81/8/4
f 80/5/5 78/4/5 83/9/5
f 78/4/5 77/4/5 83/9/5
f 77/4/5 82/5/5 83/9/5
f 82/5/5 80/5/5 83/9/5
f 74/1/6 75/2/6 84/3/6
f 75/2/6 82/5/6 84/3/6
f 82/5/6 77/4/6 84/3/6
f 77/4/6 74/1/6 84/3/6
